<?xml version="1.0" encoding="utf-8"?>
<!-- Generator: Adobe Illustrator 16.0.0, SVG Export Plug-In . SVG Version: 6.00 Build 0)  -->
<!DOCTYPE svg PUBLIC "-//W3C//DTD SVG 1.1//EN" "http://www.w3.org/Graphics/SVG/1.1/DTD/svg11.dtd">
<svg version="1.1" id="Layer_1" xmlns="http://www.w3.org/2000/svg" xmlns:xlink="http://www.w3.org/1999/xlink" x="0px" y="0px"
	 width="128px" height="128px" viewBox="0 0 128 128" enable-background="new 0 0 128 128" xml:space="preserve">
<g>
	<g>
		<g>
			<path fill="#282D33" d="M64,107.382c-23.71,0-43-19.462-43-43.383c0-23.92,19.29-43.38,43-43.38
				c23.711,0,43.001,19.46,43.001,43.38C107.001,87.92,87.711,107.382,64,107.382z M64,24.619c-21.505,0-39,17.666-39,39.38
				c0,21.716,17.495,39.383,39,39.383s39.001-17.667,39.001-39.383C103.001,42.285,85.505,24.619,64,24.619z"/>
		</g>
		<g>
			<path fill="#282D33" d="M64,107.382c-14.422,0-25.719-19.056-25.719-43.383c0-24.325,11.297-43.38,25.719-43.38
				c14.415,0,25.707,19.055,25.707,43.38C89.707,88.326,78.415,107.382,64,107.382z M64,24.619
				c-11.976,0-21.719,17.666-21.719,39.38c0,21.716,9.743,39.383,21.719,39.383c11.97,0,21.707-17.667,21.707-39.383
				C85.707,42.285,75.97,24.619,64,24.619z"/>
		</g>
		<g>
			<path fill="#282D33" d="M64,107.382h-2V20.619h2c23.711,0,43.001,19.46,43.001,43.38C107.001,87.92,87.711,107.382,64,107.382z
				 M66,24.67v78.661c20.579-1.056,37.001-18.294,37.001-39.332C103.001,42.962,86.579,25.725,66,24.67z"/>
		</g>
		<g>
			<path fill="#282D33" d="M103.714,80.585H24.274l-0.485-1.302C21.938,74.319,21,69.177,21,63.999
				c0-5.178,0.939-10.322,2.792-15.288l0.485-1.301h79.437l0.486,1.299c1.858,4.966,2.801,10.11,2.801,15.29
				s-0.942,10.323-2.801,15.287L103.714,80.585z M27.076,76.585h73.84c1.384-4.108,2.085-8.336,2.085-12.586
				c0-4.25-0.701-8.479-2.085-12.589H27.079C25.699,55.521,25,59.75,25,63.999C25,68.248,25.698,72.476,27.076,76.585z"/>
		</g>
	</g>
	<g>
		<path fill="#282D33" d="M64.034,128c-1.379,0-2.767-0.045-4.125-0.133l0.26-3.992c2.531,0.165,5.159,0.166,7.708,0.001
			l0.258,3.992C66.781,127.955,65.401,128,64.034,128z M72.243,127.47l-0.52-3.967c1.281-0.167,2.564-0.378,3.816-0.626l0.777,3.924
			C74.98,127.065,73.609,127.291,72.243,127.47z M55.802,127.467c-1.353-0.177-2.723-0.402-4.073-0.669l0.774-3.924
			c1.267,0.25,2.551,0.461,3.817,0.626L55.802,127.467z M80.339,125.865L79.308,122c1.231-0.328,2.475-0.705,3.697-1.121
			l1.287,3.787C82.986,125.11,81.656,125.514,80.339,125.865z M47.705,125.861c-1.318-0.353-2.647-0.755-3.951-1.198l1.285-3.787
			c1.221,0.414,2.466,0.792,3.699,1.122L47.705,125.861z M88.15,123.212l-1.533-3.695c1.184-0.49,2.366-1.027,3.516-1.597
			l1.773,3.586C90.678,122.113,89.414,122.688,88.15,123.212z M39.883,123.204c-1.261-0.523-2.526-1.099-3.764-1.71l1.771-3.586
			c1.159,0.572,2.346,1.111,3.525,1.601L39.883,123.204z M95.542,119.556l-2.004-3.463c1.109-0.642,2.213-1.329,3.28-2.044
			l2.225,3.324C97.904,118.136,96.726,118.87,95.542,119.556z M32.477,119.542c-1.185-0.686-2.364-1.421-3.506-2.186l2.225-3.324
			c1.07,0.717,2.176,1.405,3.285,2.047L32.477,119.542z M102.396,114.967l-2.438-3.172c1.019-0.782,2.024-1.608,2.99-2.454
			l2.637,3.008C104.556,113.252,103.482,114.133,102.396,114.967z M25.615,114.948c-1.079-0.828-2.152-1.709-3.19-2.618l2.635-3.01
			c0.974,0.853,1.98,1.679,2.992,2.456L25.615,114.948z M108.601,109.528l-2.826-2.832c0.909-0.907,1.801-1.855,2.65-2.82
			l3.002,2.645C110.521,107.549,109.569,108.561,108.601,109.528z M19.41,109.511c-0.969-0.966-1.92-1.977-2.827-3.006l3.001-2.645
			c0.851,0.965,1.742,1.912,2.65,2.818L19.41,109.511z M114.056,103.335l-3.166-2.445c0.783-1.015,1.546-2.071,2.267-3.139
			l3.316,2.236C115.704,101.126,114.892,102.252,114.056,103.335z M13.956,103.323c-0.838-1.084-1.651-2.208-2.417-3.343
			l3.314-2.238c0.719,1.063,1.481,2.118,2.267,3.134L13.956,103.323z M9.343,96.492c-0.688-1.176-1.351-2.395-1.968-3.623
			l3.574-1.795c0.579,1.151,1.199,2.294,1.846,3.396L9.343,96.492z M118.674,96.488l-3.455-2.016
			c0.652-1.117,1.273-2.264,1.846-3.406l3.576,1.791C120.03,94.076,119.368,95.298,118.674,96.488z M5.646,89.127
			c-0.532-1.257-1.033-2.552-1.486-3.85l3.775-1.32c0.426,1.217,0.895,2.431,1.394,3.609L5.646,89.127z M122.373,89.104
			l-3.686-1.557c0.503-1.19,0.972-2.407,1.393-3.616l3.777,1.316C123.408,86.537,122.909,87.835,122.373,89.104z M2.923,81.339
			c-0.366-1.316-0.695-2.665-0.979-4.008l3.914-0.824c0.266,1.26,0.574,2.524,0.918,3.76L2.923,81.339z M125.088,81.31l-3.854-1.07
			c0.344-1.237,0.651-2.502,0.914-3.76l3.916,0.82C125.783,78.642,125.455,79.99,125.088,81.31z M1.226,73.268
			c-0.195-1.356-0.35-2.736-0.458-4.101l3.987-0.316c0.102,1.28,0.246,2.574,0.43,3.847L1.226,73.268z M126.779,73.236l-3.959-0.568
			c0.182-1.268,0.326-2.562,0.427-3.847l3.988,0.314C127.127,70.505,126.974,71.885,126.779,73.236z M0.571,65.047
			c-0.006-0.355-0.009-0.711-0.009-1.068c0-1.019,0.023-2.046,0.07-3.054l3.996,0.187c-0.044,0.946-0.066,1.911-0.066,2.867
			c0,0.336,0.003,0.671,0.008,1.005L0.571,65.047z M127.43,65.016l-4-0.059c0.005-0.325,0.008-0.651,0.008-0.978
			c0-0.967-0.022-1.942-0.068-2.897l3.996-0.188c0.048,1.018,0.072,2.056,0.072,3.086C127.438,64.325,127.435,64.671,127.43,65.016z
			 M4.932,57.253l-3.976-0.44c0.15-1.365,0.348-2.739,0.584-4.083l3.939,0.692C5.258,54.683,5.073,55.972,4.932,57.253z
			 M123.065,57.224c-0.143-1.28-0.328-2.569-0.55-3.832l3.939-0.692c0.236,1.345,0.434,2.718,0.585,4.082L123.065,57.224z
			 M6.272,49.636L2.386,48.69c0.323-1.332,0.695-2.669,1.104-3.977l3.818,1.193C6.924,47.133,6.576,48.387,6.272,49.636z
			 M121.725,49.604c-0.303-1.246-0.651-2.5-1.036-3.728l3.818-1.194c0.409,1.309,0.781,2.647,1.104,3.977L121.725,49.604z
			 M8.581,42.254l-3.732-1.438c0.493-1.279,1.034-2.56,1.61-3.807l3.632,1.677C9.551,39.854,9.043,41.055,8.581,42.254z
			 M119.415,42.224c-0.462-1.199-0.969-2.396-1.505-3.559l3.633-1.675c0.571,1.24,1.111,2.516,1.604,3.794L119.415,42.224z
			 M11.826,35.223l-3.516-1.908c0.653-1.203,1.354-2.402,2.086-3.564l3.386,2.129C13.097,32.97,12.438,34.095,11.826,35.223z
			 M116.179,35.212c-0.615-1.133-1.271-2.256-1.951-3.339l3.387-2.128c0.726,1.154,1.425,2.352,2.08,3.559L116.179,35.212z
			 M15.949,28.67l-3.241-2.344c0.801-1.108,1.65-2.207,2.525-3.267l3.084,2.548C17.497,26.601,16.7,27.632,15.949,28.67z
			 M112.065,28.668c-0.752-1.041-1.547-2.071-2.364-3.062l3.086-2.545c0.872,1.057,1.72,2.156,2.521,3.265L112.065,28.668z
			 M20.877,22.704l-2.913-2.74c0.94-1,1.924-1.98,2.924-2.915l2.73,2.923C22.681,20.848,21.759,21.768,20.877,22.704z
			 M107.146,22.703c-0.882-0.938-1.803-1.857-2.739-2.734l2.734-2.92c0.998,0.935,1.98,1.915,2.919,2.915L107.146,22.703z
			 M26.529,17.423l-2.537-3.093c1.06-0.87,2.161-1.715,3.273-2.513l2.332,3.25C28.555,15.815,27.522,16.608,26.529,17.423z
			 M101.5,17.418c-0.997-0.818-2.029-1.611-3.069-2.358l2.332-3.249c1.11,0.797,2.212,1.644,3.274,2.516L101.5,17.418z
			 M32.811,12.917l-2.116-3.395c1.159-0.723,2.36-1.418,3.57-2.067l1.891,3.525C35.021,11.589,33.896,12.24,32.811,12.917z
			 M95.215,12.907c-1.097-0.683-2.224-1.335-3.351-1.939l1.891-3.525c1.202,0.645,2.405,1.341,3.575,2.07L95.215,12.907z
			 M39.617,9.269l-1.655-3.642c1.249-0.567,2.53-1.1,3.809-1.582l1.412,3.742C41.986,8.239,40.786,8.737,39.617,9.269z
			 M88.393,9.251c-1.162-0.529-2.364-1.028-3.573-1.483l1.41-3.743c1.292,0.486,2.577,1.02,3.819,1.585L88.393,9.251z M46.843,6.542
			l-1.162-3.827c1.313-0.399,2.655-0.759,3.988-1.069l0.907,3.896C49.329,5.832,48.072,6.168,46.843,6.542z M81.152,6.524
			c-1.229-0.373-2.486-0.708-3.734-0.998l0.904-3.896c1.334,0.31,2.677,0.668,3.99,1.066L81.152,6.524z M54.369,4.788l-0.65-3.947
			c1.351-0.222,2.728-0.403,4.093-0.537l0.391,3.98C56.924,4.41,55.634,4.579,54.369,4.788z M73.626,4.776
			c-1.267-0.207-2.558-0.375-3.835-0.499l0.387-3.981c1.363,0.132,2.74,0.311,4.093,0.532L73.626,4.776z M62.062,4.033l-0.13-3.998
			c1.369-0.044,2.756-0.046,4.129-0.002L65.932,4.03C64.646,3.988,63.348,3.991,62.062,4.033z"/>
	</g>
</g>
</svg>
